<?xml version="1.0" encoding="UTF-8" standalone="no"?><!DOCTYPE svg PUBLIC "-//W3C//DTD SVG 1.1//EN" "http://www.w3.org/Graphics/SVG/1.1/DTD/svg11.dtd"><svg width="100%" height="100%" viewBox="0 0 16 16" version="1.1" xmlns="http://www.w3.org/2000/svg" xmlns:xlink="http://www.w3.org/1999/xlink" xml:space="preserve" xmlns:serif="http://www.serif.com/" style="fill-rule:evenodd;clip-rule:evenodd;stroke-linejoin:round;stroke-miterlimit:2;"><path d="M13.156,4.759l0.486,1.495l0.936,-0.462l-0.15,1.033l1.572,-0l-1.272,0.924l0.729,0.748l-1.029,0.177l0.486,1.495l-1.272,-0.924l-0.486,0.924l-0.486,-0.924l-1.272,0.924l0.486,-1.495l-1.029,-0.177l0.729,-0.748l-1.272,-0.924l1.572,0l-0.15,-1.033l0.936,0.462l0.486,-1.495Z" style="fill:#fc7f7f;"/><path d="M0.914,8.845l7.431,0l0,3l4.128,-4l-4.128,-4l0,3l-7.431,0l-0,2Z" style="fill:#fc7f7f;fill-rule:nonzero;stroke:#fff;stroke-width:0.14px;"/></svg>